<?xml version="1.0" standalone="no"?>
<!DOCTYPE svg PUBLIC "-//W3C//DTD SVG 20010904//EN"
 "http://www.w3.org/TR/2001/REC-SVG-20010904/DTD/svg10.dtd">
<svg version="1.0" xmlns="http://www.w3.org/2000/svg"
 width="806.000000pt" height="455.000000pt" viewBox="0 0 806.000000 455.000000"
 preserveAspectRatio="xMidYMid meet">

<g transform="translate(0.000000,455.000000) scale(0.100000,-0.100000)"
fill="#000000" stroke="none">
<path d="M0 2275 l0 -2275 4030 0 4030 0 0 2275 0 2275 -4030 0 -4030 0 0
-2275z m2353 761 c84 -23 218 -87 215 -102 -2 -7 -41 -64 -87 -127 l-84 -113
-89 45 c-81 42 -96 46 -160 46 -61 0 -72 -3 -89 -24 -38 -47 -16 -86 67 -116
262 -95 332 -155 342 -295 12 -166 -83 -322 -239 -393 -129 -59 -347 -62 -507
-9 -91 31 -182 76 -182 91 0 8 46 75 132 193 l49 66 56 -34 c74 -44 145 -70
215 -79 76 -10 112 0 127 32 18 39 -11 72 -95 106 -38 15 -97 39 -131 53 -126
52 -182 128 -183 245 0 166 89 299 258 384 109 55 253 66 385 31z m1580 7 c2
-5 -8 -62 -22 -128 l-26 -120 -225 -5 -225 -5 -11 -50 c-6 -27 -14 -65 -17
-82 l-6 -33 189 0 c105 0 190 -2 190 -4 0 -6 -38 -191 -46 -220 l-6 -26 -191
-2 -192 -3 -11 -51 c-6 -29 -14 -68 -18 -88 l-7 -36 228 -2 228 -3 -3 -29 c-2
-16 -14 -74 -26 -130 l-23 -101 -382 -3 c-209 -1 -381 0 -381 2 0 12 228 1089
235 1114 3 9 87 12 374 12 203 0 372 -3 374 -7z m1337 3 c0 -2 -11 -57 -25
-122 -14 -65 -25 -122 -25 -126 0 -4 -102 -9 -227 -10 l-227 -3 -11 -55 c-6
-30 -15 -67 -18 -82 l-7 -28 190 0 c121 0 190 -4 190 -10 0 -8 -25 -128 -45
-217 -5 -23 -7 -23 -195 -23 l-189 0 -10 -37 c-13 -49 -30 -126 -31 -135 0 -5
101 -8 224 -8 124 0 227 -4 230 -8 3 -5 -7 -64 -22 -133 l-27 -124 -384 -3
-384 -2 6 27 c57 258 146 676 173 808 19 94 39 186 43 205 5 19 12 47 15 63
l6 27 375 0 c206 0 375 -2 375 -4z m1099 -7 c126 -22 235 -98 286 -199 33 -67
48 -144 47 -246 -3 -322 -187 -559 -507 -655 -25 -7 -143 -14 -313 -16 l-273
-5 5 24 c30 135 214 997 222 1043 13 71 -8 65 241 65 125 0 256 -5 292 -11z
m-3557 -869 c-3 -30 -34 -182 -48 -232 -5 -16 -19 -18 -123 -18 l-118 0 29
136 c16 75 31 141 34 146 3 5 56 7 117 6 l112 -3 -3 -35z m1338 28 c-1 -7 -13
-71 -29 -143 l-28 -130 -116 -3 c-104 -2 -117 -1 -117 14 0 16 46 235 55 262
3 9 36 12 120 12 86 0 115 -3 115 -12z m1330 5 c0 -5 -12 -70 -26 -145 l-27
-138 -118 0 c-66 0 -119 4 -119 9 0 10 49 249 55 269 3 9 36 12 120 12 63 0
115 -3 115 -7z m-1440 -529 c0 -8 -5 -12 -10 -9 -6 4 -8 11 -5 16 9 14 15 11
15 -7z m1410 6 c0 -5 -5 -10 -11 -10 -5 0 -7 5 -4 10 3 6 8 10 11 10 2 0 4 -4
4 -10z m950 0 c0 -5 -5 -10 -11 -10 -5 0 -7 5 -4 10 3 6 8 10 11 10 2 0 4 -4
4 -10z m-4804 -14 c10 -8 16 -18 12 -22 -4 -4 -15 -1 -23 6 -11 9 -19 10 -27
2 -12 -12 -3 -32 16 -32 20 0 47 -35 40 -53 -3 -9 -14 -19 -25 -22 -20 -7 -59
10 -59 25 0 13 17 13 25 0 9 -15 35 -12 35 5 0 8 -13 21 -30 30 -34 17 -40 48
-12 64 23 14 25 13 48 -3z m332 -52 l-3 -67 -34 -2 c-35 -3 -71 22 -71 50 0
27 38 56 65 49 21 -5 25 -3 25 15 0 12 5 21 10 21 7 0 10 -25 8 -66z m1037 47
c-35 -7 -41 -34 -7 -39 12 -2 22 -7 22 -12 0 -5 -10 -10 -22 -12 -34 -4 -28
-32 7 -39 23 -5 26 -7 13 -13 -9 -4 -27 -6 -40 -4 -20 3 -23 9 -26 57 -4 73
-1 78 44 72 38 -5 39 -5 9 -10z m1580 9 c4 -6 -5 -10 -19 -10 -19 0 -26 -5
-26 -20 0 -13 7 -20 20 -20 11 0 20 -4 20 -10 0 -5 -9 -10 -20 -10 -13 0 -20
-7 -20 -20 0 -15 7 -20 27 -20 19 0 24 -3 16 -11 -6 -6 -23 -9 -39 -7 -28 3
-29 5 -32 62 -3 63 4 76 45 76 12 0 25 -4 28 -10z m395 -54 c0 -36 -4 -68 -10
-71 -6 -4 -10 20 -10 64 0 41 4 71 10 71 6 0 10 -28 10 -64z m1063 36 c21 -18
22 -65 2 -85 -17 -18 -70 -31 -85 -22 -11 7 -14 117 -4 128 10 10 67 -4 87
-21z m-3665 1 c12 -12 13 -18 4 -21 -15 -5 -16 -54 0 -70 16 -16 2 -28 -15
-13 -23 18 -31 121 -10 121 2 0 12 -8 21 -17z m3020 -3 c7 -12 8 -20 2 -20
-14 0 -13 -53 2 -68 15 -15 6 -24 -15 -16 -17 6 -36 77 -29 107 6 23 24 22 40
-3z m-3604 -16 c29 -28 20 -44 -26 -44 -40 0 -41 -1 -25 -17 15 -15 20 -16 38
-5 12 8 23 11 25 9 8 -7 -26 -37 -42 -37 -19 0 -54 36 -54 55 0 19 35 55 54
55 8 0 22 -7 30 -16z m316 -4 c30 -30 25 -40 -20 -40 -22 0 -40 -5 -40 -10 0
-17 29 -23 45 -10 9 7 19 10 23 6 8 -9 -26 -36 -44 -36 -20 0 -44 30 -44 55 0
26 24 55 46 55 8 0 23 -9 34 -20z m158 6 c14 -8 16 -96 3 -96 -6 0 -11 19 -13
43 -2 34 -7 42 -23 42 -16 0 -21 -8 -25 -38 -3 -21 -9 -39 -15 -40 -10 -2 -20
66 -12 87 5 13 66 14 85 2z m247 4 c3 -5 12 -7 20 -3 12 4 15 -5 15 -48 0 -41
-3 -50 -12 -41 -8 8 -15 9 -25 0 -10 -8 -20 -8 -38 0 -46 21 -29 100 22 102 6
0 14 -4 18 -10z m142 -14 c-10 -8 -17 -26 -17 -44 0 -17 -4 -34 -10 -37 -6 -4
-10 13 -10 44 0 44 3 50 23 53 30 5 36 -1 14 -16z m98 -17 c9 -27 23 -24 31 6
3 14 12 25 20 25 10 0 7 -16 -13 -62 -14 -35 -30 -67 -35 -72 -13 -16 -20 1
-10 21 8 14 6 30 -9 62 -10 24 -19 48 -19 53 0 16 28 -11 35 -33z m372 16
c-10 -7 -17 -26 -17 -43 0 -17 -4 -34 -10 -37 -6 -4 -10 14 -10 48 0 53 0 54
27 49 23 -4 24 -6 10 -17z m171 -33 c4 -65 -10 -92 -46 -92 -30 0 -60 15 -50
25 3 4 16 1 28 -5 16 -9 25 -9 36 1 22 18 17 32 -11 25 -27 -7 -65 22 -65 49
0 28 36 53 71 50 33 -2 34 -3 37 -53z m142 40 c46 -37 -7 -110 -59 -83 -27 15
-30 75 -3 90 25 15 37 13 62 -7z m158 6 c7 -7 12 -32 12 -57 0 -52 -17 -45
-22 9 -2 27 -7 35 -23 35 -16 0 -21 -8 -23 -35 -6 -58 -22 -60 -22 -3 0 46 3
52 23 56 39 8 43 7 55 -5z m156 -4 c29 -29 10 -94 -27 -94 -25 0 -57 32 -57
55 0 23 32 55 57 55 6 0 19 -7 27 -16z m162 3 c4 -3 15 -2 25 4 34 18 59 -5
59 -56 0 -25 -4 -45 -10 -45 -5 0 -10 15 -10 33 0 41 -13 62 -34 54 -10 -4
-16 -18 -16 -41 0 -19 -4 -38 -10 -41 -6 -4 -10 8 -10 28 0 19 -7 40 -15 47
-22 19 -45 -5 -45 -47 0 -20 -4 -32 -10 -28 -10 6 -14 87 -5 96 6 7 74 3 81
-4z m164 -43 c0 -34 -4 -53 -10 -49 -18 11 -12 105 7 105 2 0 3 -25 3 -56z
m145 40 c21 -21 13 -29 -15 -14 -30 16 -61 -11 -43 -38 11 -18 25 -19 56 -7
13 5 16 3 11 -8 -8 -22 -45 -28 -71 -11 -30 19 -30 58 -1 78 28 20 43 20 63 0z
m136 0 c11 -13 9 -14 -14 -9 -35 9 -36 -12 -2 -25 31 -12 33 -46 5 -55 -22 -7
-50 9 -50 28 0 7 4 7 12 -1 16 -16 38 -15 38 2 0 8 -10 16 -22 18 -26 3 -37
36 -16 49 20 13 34 11 49 -7z m529 -39 l0 -51 -41 1 c-43 1 -59 15 -59 52 0
32 25 52 65 50 l35 -2 0 -50z m240 2 l0 -53 -33 1 c-48 2 -57 11 -57 56 0 50
18 51 22 2 2 -30 7 -38 23 -38 15 0 21 8 23 30 7 72 22 74 22 2z m165 -2 c0
-47 -1 -48 -34 -50 -35 -3 -71 22 -71 50 0 28 36 53 71 50 33 -2 34 -3 34 -50z
m333 39 c39 -27 19 -94 -28 -94 -47 0 -67 67 -28 94 12 9 25 16 28 16 3 0 16
-7 28 -16z m160 7 c18 -11 28 -86 13 -95 -7 -5 -11 3 -11 21 0 38 -22 68 -44
60 -11 -4 -16 -19 -16 -47 0 -25 -4 -39 -10 -35 -5 3 -10 26 -10 50 0 37 3 44
23 48 37 7 41 7 55 -2z m403 -1 c10 -6 19 -20 19 -30 0 -16 -7 -20 -35 -20
-19 0 -35 -5 -35 -10 0 -16 30 -24 43 -11 14 14 27 14 27 1 0 -19 -46 -33 -69
-21 -27 15 -30 75 -3 90 22 13 29 13 53 1z m108 -32 l18 -43 12 38 c11 32 31
52 31 30 0 -22 -35 -93 -44 -90 -13 4 -32 40 -41 80 -11 41 4 32 24 -15z m277
28 c10 -8 16 -18 11 -22 -4 -4 -13 -2 -19 4 -18 18 -36 14 -43 -9 -9 -28 19
-59 37 -41 15 15 28 16 28 2 0 -6 -11 -16 -25 -22 -51 -23 -90 54 -43 86 27
19 29 20 54 2z m156 -3 c29 -26 22 -43 -17 -43 -24 0 -35 -5 -35 -15 0 -18 31
-20 48 -3 6 6 14 9 17 6 8 -8 -24 -38 -41 -38 -20 0 -54 37 -54 59 0 19 34 51
54 51 5 0 18 -7 28 -17z m-2059 -23 c6 -16 15 -30 18 -30 4 0 10 14 14 30 4
17 13 30 20 30 10 0 9 -10 -5 -47 -10 -27 -24 -48 -31 -48 -7 0 -21 21 -31 48
-11 29 -14 47 -7 47 6 0 16 -13 22 -30z m817 -20 c0 -27 -4 -50 -10 -50 -5 0
-10 23 -10 50 0 28 5 50 10 50 6 0 10 -22 10 -50z m950 0 c0 -27 -4 -50 -10
-50 -5 0 -10 23 -10 50 0 28 5 50 10 50 6 0 10 -22 10 -50z"/>
<path d="M2065 3001 c-83 -24 -140 -55 -196 -108 -64 -60 -97 -119 -115 -205
-33 -159 22 -234 226 -309 149 -54 180 -78 180 -136 -1 -51 -27 -82 -78 -94
-75 -16 -214 16 -303 70 -19 12 -39 21 -45 21 -9 0 -144 -181 -144 -194 0 -9
93 -47 180 -73 122 -37 284 -37 388 0 191 67 279 186 270 367 -2 60 -8 85 -24
107 -38 51 -98 88 -224 137 -145 56 -170 77 -170 141 0 36 5 48 30 69 59 49
160 42 282 -20 26 -13 53 -24 60 -24 10 0 123 143 136 173 5 11 -114 62 -189
81 -83 20 -187 19 -264 -3z"/>
<path d="M3215 2998 c-4 -14 -50 -227 -120 -558 -88 -411 -95 -445 -95 -463 0
-16 21 -17 343 -15 l342 3 17 75 c9 41 17 83 17 93 1 16 -16 17 -228 17 l-229
0 27 128 27 127 192 3 c217 3 190 -9 212 92 19 87 33 80 -175 80 -141 0 -185
3 -185 13 0 6 10 60 22 119 l23 108 224 2 225 3 18 80 c9 44 18 86 18 93 0 18
-669 18 -675 0z"/>
<path d="M4541 2973 c-6 -21 -24 -103 -40 -183 -16 -80 -35 -167 -41 -195 -29
-128 -130 -611 -130 -622 0 -11 67 -13 343 -11 l342 3 12 49 c7 27 15 69 19
93 l6 43 -229 2 -230 3 24 105 c12 58 25 115 28 128 5 22 7 22 195 22 l189 0
10 38 c23 96 28 121 23 127 -3 3 -88 5 -189 5 -168 0 -183 1 -182 18 0 9 10
62 22 117 l22 100 225 5 224 5 18 75 c9 41 17 83 18 93 0 16 -22 17 -335 17
l-334 0 -10 -37z"/>
<path d="M5867 2943 c-8 -38 -34 -156 -57 -263 -23 -107 -63 -296 -90 -420
-27 -124 -52 -242 -55 -262 l-7 -38 229 0 c200 0 239 3 309 21 245 64 423 260
463 509 43 263 -55 451 -264 506 -35 10 -121 14 -282 14 l-231 0 -15 -67z
m440 -142 c92 -42 134 -152 115 -300 -21 -158 -109 -286 -227 -330 -66 -25
-265 -31 -265 -8 1 19 124 599 136 640 8 26 182 24 241 -2z"/>
<path d="M6104 2779 c-6 -8 -36 -135 -68 -284 -31 -148 -60 -278 -63 -288 -5
-18 2 -19 99 -15 93 3 107 6 148 32 102 65 160 174 168 318 4 76 2 92 -21 140
-33 74 -71 97 -174 105 -60 4 -81 2 -89 -8z"/>
<path d="M2616 2162 c-5 -8 -46 -184 -46 -197 0 -3 36 -5 79 -5 90 0 81 -9
106 108 22 108 26 102 -59 102 -41 0 -77 -4 -80 -8z"/>
<path d="M3946 2161 c-3 -5 -13 -42 -21 -82 -8 -41 -17 -84 -20 -97 -6 -23 -5
-23 77 -20 l82 3 17 80 c29 131 32 125 -55 125 -41 0 -77 -4 -80 -9z"/>
<path d="M5275 2158 c-9 -24 -35 -159 -35 -179 0 -18 6 -20 78 -17 l77 3 21
95 c12 52 19 98 17 103 -8 13 -153 8 -158 -5z"/>
<path d="M1857 1624 c-13 -13 -7 -55 9 -61 24 -9 51 23 38 45 -12 19 -36 27
-47 16z"/>
<path d="M5937 1653 c-10 -9 -9 -81 1 -87 18 -11 53 8 59 32 4 19 1 30 -17 44
-24 19 -33 22 -43 11z"/>
<path d="M1700 1616 c0 -11 9 -16 26 -16 31 0 28 23 -4 28 -15 2 -22 -2 -22
-12z"/>
<path d="M2017 1624 c-14 -14 -6 -24 19 -24 16 0 24 5 22 13 -5 14 -31 21 -41
11z"/>
<path d="M2437 1623 c-12 -11 -7 -40 9 -53 21 -18 49 9 39 39 -6 20 -34 28
-48 14z"/>
<path d="M3181 1616 c-15 -18 2 -56 24 -56 22 0 39 38 24 56 -6 8 -17 14 -24
14 -7 0 -18 -6 -24 -14z"/>
<path d="M3347 1623 c-13 -13 -7 -54 9 -60 24 -9 46 24 33 48 -10 19 -30 25
-42 12z"/>
<path d="M3660 1615 c-17 -21 -2 -50 26 -50 14 0 19 7 19 30 0 34 -24 45 -45
20z"/>
<path d="M4780 1615 c-17 -21 -2 -50 26 -50 14 0 19 7 19 30 0 34 -24 45 -45
20z"/>
<path d="M5181 1611 c-13 -24 9 -57 33 -48 23 9 31 34 16 52 -17 20 -37 19
-49 -4z"/>
<path d="M5543 1623 c-18 -7 -16 -38 3 -53 12 -11 18 -10 32 4 25 25 -2 63
-35 49z"/>
<path d="M6107 1624 c-14 -14 -6 -24 19 -24 16 0 24 5 22 13 -5 14 -31 21 -41
11z"/>
<path d="M6640 1616 c0 -11 9 -16 26 -16 31 0 28 23 -4 28 -15 2 -22 -2 -22
-12z"/>
</g>
</svg>
